<?xml version="1.0" standalone="no"?>
<!DOCTYPE svg PUBLIC "-//W3C//DTD SVG 20010904//EN"
 "http://www.w3.org/TR/2001/REC-SVG-20010904/DTD/svg10.dtd">
<svg version="1.0" xmlns="http://www.w3.org/2000/svg"
 width="160.000000pt" height="160.000000pt" viewBox="0 0 160.000000 160.000000"
 preserveAspectRatio="xMidYMid meet">
<metadata>
Created by potrace 1.14, written by Peter Selinger 2001-2017
</metadata>
<g transform="translate(0.000000,160.000000) scale(0.100000,-0.100000)"
fill="#000000" stroke="none">
<path d="M1076 1593 c-2 -3 -10 -5 -18 -7 -8 -1 -40 -15 -72 -31 -85 -43 -169
-133 -217 -231 -21 -44 -39 -86 -39 -92 0 -7 -12 -18 -27 -25 -16 -6 -31 -17
-36 -24 -5 -9 -21 -5 -59 15 -32 17 -68 27 -94 27 -23 0 -40 3 -38 7 3 4 -8 1
-23 -7 -15 -8 -33 -15 -39 -15 -6 0 -21 -9 -33 -19 -22 -19 -23 -19 -59 2 -40
24 -49 27 -104 33 -45 5 -124 -20 -156 -50 -90 -82 -72 -231 34 -287 37 -20
40 -25 40 -63 1 -79 66 -166 134 -180 25 -5 28 -9 26 -38 -3 -38 13 -98 26
-98 5 0 7 -4 4 -8 -8 -14 8 -30 69 -66 32 -20 53 -36 46 -36 -9 0 -10 -4 -4
-13 6 -6 9 -21 7 -31 -4 -27 20 -81 48 -108 31 -30 83 -59 92 -51 3 3 7 -6 7
-20 1 -27 4 -42 9 -52 1 -3 3 -9 4 -14 3 -21 59 -80 90 -95 38 -18 150 -22
190 -6 58 21 131 128 111 160 -3 5 -1 10 5 10 6 0 8 5 5 10 -4 6 -3 9 2 8 16
-4 73 33 96 64 29 39 39 68 39 113 0 30 18 51 39 47 4 -1 28 19 55 43 27 25
45 45 40 45 -5 0 -3 7 4 15 7 8 13 39 13 68 0 50 1 54 31 67 54 24 107 93 101
133 -2 9 0 17 4 17 5 0 6 11 3 25 -3 20 1 27 24 35 52 19 74 33 80 52 3 10 12
18 20 18 8 0 12 5 9 10 -3 6 -1 10 6 10 7 0 9 3 6 7 -4 3 -3 11 2 17 8 10 16
63 11 76 -1 3 -3 12 -5 21 -7 36 -17 59 -26 59 -5 0 -9 6 -9 13 0 12 -40 41
-85 61 -35 16 -98 16 -152 -1 -29 -8 -50 -19 -48 -23 3 -4 -4 -10 -15 -13 -11
-3 -20 -2 -20 2 0 16 -84 45 -134 46 -54 2 -83 -7 -128 -37 -15 -10 -29 -14
-32 -9 -3 5 -22 16 -42 26 l-36 17 35 24 c40 27 142 74 172 79 11 2 48 8 83
15 35 6 67 8 72 5 9 -5 13 5 12 25 -1 14 -13 87 -17 100 -2 8 -7 29 -10 45 -3
17 -8 37 -10 45 -2 8 -4 21 -4 28 -1 9 -17 12 -56 11 -30 -1 -57 -4 -59 -6z"/>
</g>
</svg>
